<?xml version="1.0" encoding="utf-8"?>
<!-- Generator: Adobe Illustrator 18.1.1, SVG Export Plug-In . SVG Version: 6.00 Build 0)  -->
<svg version="1.1" id="Layer_1" xmlns="http://www.w3.org/2000/svg" xmlns:xlink="http://www.w3.org/1999/xlink" x="0px" y="0px"
	 viewBox="100 -100 500 500" enable-background="new 100 -100 500 500" xml:space="preserve">
<path fill="#00DD00" d="M273.5-60c22.7,15.8,45.3,31.7,67.9,47.5c0.5,0.5,1.6,1.4,2.1,1.9c22.9-16.3,46-32.3,69-48.4
	c-23.1,45.2-46.4,90.2-69.3,135.5C320.2,30.9,296.7-14.5,273.5-60z"/>
<path fill="#00DD00" d="M128,71.4c43.5-41.6,86.9-83.3,130.3-124.9c25,45.8,50,91.6,75,137.4c-26.2-19-52.4-38.1-78.6-57.1
	c-17.9,14.9-35.7,29.7-53.6,44.6c35.6,37.5,71.5,74.8,107,112.5c6.2,29.7,11.9,59.4,18,89.2C260.1,205.8,194,138.6,128,71.4z"/>
<path fill="#00DD00" d="M427.7-52.5C471.1-10.9,514.5,30.7,558,72.4C492,139.6,425.9,206.8,359.9,274c5.9-29.3,11.7-58.7,17.6-88
	c0.2-0.9,0.6-1.7,1.3-2.4c35.4-37.1,70.7-74.2,106.1-111.3c-17.9-14.9-35.7-29.7-53.6-44.6c-26.2,19-52.4,38.1-78.6,57.1
	C377.7,39.1,402.7-6.7,427.7-52.5z"/>
</svg>
